<svg id="content" xmlns="http://www.w3.org/2000/svg" viewBox="0 0 178 178"><defs><style>.cls-1{fill:#5b5b5b;}</style></defs><title>Artboard 19</title><path class="cls-1" d="M88.93,172.5C42.43,172.5,5.48,135.06,5.5,88c0-45.36,37.83-82.59,84-82.47a83.5,83.5,0,0,1-.53,167Zm77.79-83.28A77.92,77.92,0,0,0,89,11.19c-42.61,0-77.76,35-77.79,77.49,0,43.16,35,78.27,77.9,78.1S166.71,131.85,166.72,89.22Z"/><path class="cls-1" d="M41.43,111.67c1.48,4,2.92,7.8,4.23,11.6.43,1.25,1.3,1.16,2.25,1.17,4.41.06,8.82-.06,13.21.23a25.86,25.86,0,0,1,23.72,24.22c.18,3.76-.6,4.6-4.39,4.6H63.35c-3.64,0-4.27-.62-4.28-4.15,0-3.11,0-6.22,0-9.33,0-1.87.85-3.07,2.67-3.16s3,1.14,3,3.08.07,4.15,0,6.22c0,1.21.3,1.67,1.58,1.65q5.45-.12,10.88,0c1.48,0,1.71-.45,1.42-1.83-1.83-8.58-10.13-15.51-18.93-15.62-4.67-.06-9.34-.08-14,0-2.48.06-4-.78-4.82-3.27-1.88-5.55-4-11-6-16.49-1.13-3.1,0-4.63,3.23-4.64,6.22,0,12.44-.06,18.66,0,1.73,0,2.44-.33,2.37-2.25C59,99.87,59,96,59.12,92.1c.07-1.91-.63-2.25-2.35-2.24-8.64.08-17.28,0-25.92.08-2.5,0-4-.79-4.85-3.25-1.86-5.45-3.94-10.83-5.9-16.26-1.26-3.47-.28-4.9,3.33-4.9q28.76,0,57.53,0c3.26,0,3.87.63,3.87,4q0,21.51,0,43a22.21,22.21,0,0,0,.2,3.36,3.74,3.74,0,0,0,3.87,3.46A3.87,3.87,0,0,0,93,115.8a15.82,15.82,0,0,0,.1-2.58q0-21.64,0-43.28c0-3.9.5-4.41,4.26-4.41q28.5,0,57,0c3.82,0,4.79,1.38,3.48,5-2,5.5-4.06,11-6,16.5-.75,2.13-2.13,2.9-4.31,2.88-8.64,0-17.28.07-25.92-.08-2.24,0-2.71.64-2.63,2.74.13,3.79,0,7.59-.16,11.38-.07,1.62.46,2.06,2,2,6.39-.08,12.79,0,19.18,0,3.12,0,4.17,1.53,3.1,4.51-2,5.66-4.22,11.29-6.2,17-.75,2.17-2.13,2.93-4.29,2.9-4.66,0-9.33,0-14,0a20.29,20.29,0,0,0-19.29,15.51c-.37,1.54-.12,2,1.47,2,3.54-.09,7.09-.1,10.63,0,1.43,0,1.75-.52,1.69-1.8-.09-2-.08-4,0-6s1-3.24,3-3.2,2.78,1.34,2.73,3.33c-.07,3.36-.06,6.74,0,10.1,0,2.19-1,3.2-3.13,3.21q-9.72,0-19.44,0c-2.26,0-3.18-1.25-3.22-3.46-.2-12.47,10.65-24.45,23.17-25.31,4.55-.31,9.14-.26,13.72-.23,1.47,0,2.14-1.18,2.6-2.52,1.22-3.57,2.56-5.8,4-11.66h-18.3c-4.42,0-5.1,0-5.1-4.38,0-6.13,0-11.92,0-18.06,0-3.21.94-4,4.17-4,9.07,0,18.14,0,27.21.11,1.61,0,2.46-.35,3-2,1.14-3.51,2.52-6.92,3.89-10.64-.88,0-1.61-.11-2.33-.11-15.89,0-31.79.06-47.68-.06-2.25,0-2.64.67-2.63,2.74.1,13.65.08,27.3,0,41,0,5.17-2.93,8.91-7.65,10a9.84,9.84,0,0,1-11-5.25,13.25,13.25,0,0,1-1-6.06c0-13.31,0-26.61,0-39.91,0-1.85-.32-2.49-2.36-2.47q-24,.14-47.94,0c-2.06,0-2.29.5-1.53,2.29,1.17,2.77,2.22,5.6,3.12,8.47a2.56,2.56,0,0,0,2.94,2.09C42.19,84,51,84,59.81,84c4.37,0,5,.61,5,4.91v18.14c0,3.87-.77,4.61-4.73,4.61C53.94,111.68,47.83,111.67,41.43,111.67Z"/><path class="cls-1" d="M100.37,58.91a2.67,2.67,0,0,1-1.26-.31L88.65,53.1,78.19,58.6a2.72,2.72,0,0,1-3.94-2.86l2-11.65-8.46-8.24a2.72,2.72,0,0,1,1.5-4.64L81,29.51l5.23-10.59a2.72,2.72,0,0,1,4.87,0l5.23,10.59,11.7,1.7a2.72,2.72,0,0,1,1.5,4.64l-8.46,8.24,2,11.65a2.72,2.72,0,0,1-2.68,3.17ZM75.52,35.8l5.54,5.4a2.71,2.71,0,0,1,.78,2.4l-1.31,7.63,6.85-3.6a2.7,2.7,0,0,1,2.53,0l6.85,3.6L95.45,43.6a2.71,2.71,0,0,1,.79-2.4l5.54-5.4-7.66-1.12a2.7,2.7,0,0,1-2.05-1.48l-3.42-6.94L85.22,33.2a2.68,2.68,0,0,1-2,1.48Z"/></svg>