<svg id="content" xmlns="http://www.w3.org/2000/svg" viewBox="0 0 510 180"><defs><style>.cls-1,.cls-3{fill:#fff;}.cls-1,.cls-2,.cls-3{stroke:#fff;}.cls-1{stroke-miterlimit:10;}.cls-2{fill:none;stroke-width:5.58px;}.cls-2,.cls-3{stroke-linecap:round;stroke-linejoin:round;}.cls-3{stroke-width:2.31px;}</style></defs><title>Artboard 21</title><path class="cls-1" d="M88.45,175.14c-47.76,0-85.72-38.46-85.7-86.83C2.77,41.72,41.61,3.48,89,3.6a85.77,85.77,0,0,1-.55,171.54Zm79.91-85.55A80,80,0,0,0,88.54,9.44C44.77,9.4,8.66,45.37,8.63,89c0,44.34,35.94,80.41,80,80.24S168.35,133.39,168.36,89.59Z"/><path class="cls-1" d="M39.66,112.66c1.52,4.14,3,8,4.35,11.91.44,1.29,1.33,1.19,2.31,1.21,4.52.06,9.06-.07,13.57.23a26.56,26.56,0,0,1,24.36,24.88c.19,3.86-.62,4.72-4.5,4.73H62.18c-3.74,0-4.39-.65-4.39-4.27,0-3.2,0-6.39,0-9.59,0-1.92.88-3.15,2.74-3.24,2-.09,3.08,1.17,3.13,3.17s.07,4.26,0,6.38c0,1.24.32,1.72,1.63,1.69q5.58-.1,11.18,0c1.51,0,1.75-.45,1.45-1.87-1.87-8.82-10.4-15.94-19.45-16-4.79-.06-9.58-.08-14.37,0-2.55,0-4.08-.81-5-3.37-1.94-5.69-4.16-11.29-6.21-16.94-1.16-3.18,0-4.75,3.32-4.76,6.39,0,12.78-.06,19.17,0,1.78,0,2.51-.34,2.43-2.31-.16-4-.16-8,0-12,.08-2-.64-2.31-2.42-2.29-8.87.08-17.74,0-26.62.07-2.56,0-4.11-.81-5-3.33-1.91-5.61-4-11.13-6.06-16.7-1.29-3.57-.29-5,3.42-5q29.55,0,59.1,0c3.34,0,4,.65,4,4.1q0,22.1,0,44.19a24.85,24.85,0,0,0,.19,3.45,3.86,3.86,0,0,0,4,3.56,4,4,0,0,0,4.21-3.66,16.74,16.74,0,0,0,.1-2.65q0-22.23,0-44.46c0-4,.51-4.53,4.37-4.54h58.57c3.92,0,4.91,1.42,3.57,5.14-2,5.66-4.17,11.28-6.16,16.95-.77,2.19-2.19,3-4.43,3-8.88-.06-17.75.06-26.62-.09-2.31,0-2.79.66-2.71,2.81.13,3.9,0,7.8-.16,11.7-.08,1.66.47,2.11,2.1,2.08,6.56-.08,13.13,0,19.7,0,3.2,0,4.28,1.57,3.18,4.63-2.11,5.82-4.33,11.6-6.37,17.44-.77,2.22-2.19,3-4.4,3-4.79-.05-9.59,0-14.38,0A20.83,20.83,0,0,0,99.2,147.77c-.38,1.58-.12,2,1.51,2,3.64-.08,7.28-.09,10.92,0,1.47,0,1.79-.53,1.73-1.86-.09-2-.07-4.08,0-6.12s1-3.32,3.06-3.28,2.86,1.38,2.81,3.42c-.08,3.46-.06,6.92,0,10.38,0,2.25-1.08,3.29-3.22,3.29q-10,0-20,0c-2.32,0-3.26-1.29-3.3-3.56-.21-12.81,10.94-25.11,23.79-26,4.69-.32,9.4-.27,14.1-.23,1.51,0,2.2-1.22,2.67-2.6,1.25-3.66,2.63-6,4.09-12h-18.8c-4.54,0-5.24,0-5.24-4.5,0-6.3,0-12.25,0-18.55,0-3.3,1-4.11,4.27-4.12,9.32,0,18.64,0,28,.11,1.65,0,2.53-.36,3.07-2,1.17-3.61,2.58-7.11,4-10.94-.91,0-1.65-.1-2.39-.1-16.33,0-32.66,0-49-.06-2.31,0-2.71.68-2.69,2.81.09,14,.07,28,0,42.06,0,5.31-3,9.15-7.86,10.3a10.09,10.09,0,0,1-11.33-5.4,13.56,13.56,0,0,1-1-6.23c0-13.66,0-27.33,0-41,0-1.9-.33-2.55-2.42-2.54q-24.63.15-49.25,0c-2.11,0-2.36.52-1.58,2.35,1.21,2.85,2.29,5.76,3.21,8.71.51,1.64,1.31,2.16,3,2.14,9-.09,18.1,0,27.15,0,4.49,0,5.11.63,5.11,5q0,9.31,0,18.64c0,4-.78,4.74-4.85,4.74Z"/><polygon class="cls-2" points="88.17 18.61 94.19 30.81 107.65 32.77 97.91 42.27 100.2 55.67 88.17 49.34 76.12 55.67 78.42 42.27 68.68 32.77 82.14 30.81 88.17 18.61"/><path class="cls-3" d="M350.22,162.12c7.47-5,12.5-12.1,16.5-20,1.95-3.85,3.66-7.82,5.43-11.64-3.17,1.18-6.25,2.62-9.49,3.47a21.91,21.91,0,0,1-14.06-1c-3.5-1.44-6-3.95-6.94-6.72-1.5,1.18-3.37,2.52-5.12,4-3.44,2.91-7.3,4.63-11.88,4.32-7.4-.5-11.39-5.58-9.68-12.82a57.32,57.32,0,0,1,3.85-10.13c3.22-7.2,6.64-14.32,9.91-21.5a21.21,21.21,0,0,0,1.4-4.55,5.5,5.5,0,0,0-5.07-6.88c-4.84-.56-8.46,1.77-11.59,5.12-3.56,3.79-5.51,8.52-7.64,13.16q-7.63,16.67-15.35,33.29a6,6,0,0,1-2,2.69,4.09,4.09,0,0,1-3.3.31c-1.24-.58-.51-1.88-.06-2.86q4.56-10,9.14-20c3.17-6.94,6.35-13.89,9.46-20.86a18.73,18.73,0,0,0,1.21-4A5.53,5.53,0,0,0,300,78.69c-3.89-.56-7.12.94-9.95,3.44A28.86,28.86,0,0,0,282.94,92c-3.87,8.45-7.65,16.94-11.57,25.36-2.7,5.79-6.19,11-11.66,14.61a15.7,15.7,0,0,1-12.79,2.16,8.89,8.89,0,0,1-6.86-6.42,62.73,62.73,0,0,1-6.59,5.1c-4.37,2.6-9,2.43-13.58.35-4.35-2-6.22-6.57-4.9-12a34.06,34.06,0,0,1,2.38-6.43c4.35-9.34,8.63-18.73,13.28-27.94,2.59-5.12,6.28-9.46,11.93-11.58,5.07-1.91,11.87-1.74,15.88,4.45.52-1,1-2,1.47-2.94.92-1.71,2.19-2.25,3.56-1.5,1.61.87,1.47,2.23.84,3.62-3,6.66-6.07,13.32-9.1,20-2.94,6.43-5.9,12.84-8.78,19.29a25.63,25.63,0,0,0-1.62,4.88c-.9,4.07,1.36,6.93,5.51,7.11,5.19.22,9.09-2.33,11.61-6.48a168.31,168.31,0,0,0,8.32-15.86c4.8-10.12,9.36-20.36,14.1-30.5a4.43,4.43,0,0,1,2.26-2.27c1.73-.52,2.7.63,3,2.51,3.52-2.65,7.37-4,11.69-3.21,4.49.77,7.49,3.29,8.44,7.69,2.35-1.94,4.54-4,7-5.69a13,13,0,0,1,9.69-2c7.06,1,10.56,7.16,8,14.76-1.63,4.8-4,9.35-6.13,14-2.21,4.87-4.55,9.68-6.7,14.57a24.88,24.88,0,0,0-1.88,6c-.65,4,1.5,6.39,5.49,6.56,5.27.22,8.85-2.61,11.81-6.57s4.46-9,6.55-13.51c4-8.72,8.21-17.38,12.67-25.88A18.64,18.64,0,0,1,366.41,75a13.73,13.73,0,0,1,10.44.18,8.09,8.09,0,0,1,4.8,8.95c-1.23,7.58-4.51,14.32-10.51,19.18s-12.81,5.44-19.89,1.5c-2,4.54-4.73,8.85-5.14,14-.55,6.76,3.22,11,10,11.25,8.47.37,14.9-3.62,19.77-10.08,2.49-3.3,4.25-7.21,6-11,4.37-9.27,8.56-18.62,12.82-27.94.21-.45.35-.93.61-1.64a10.21,10.21,0,0,1-2.44,0c-.72-.19-1.79-.61-1.91-1.12a2.6,2.6,0,0,1,.73-2.3,6.51,6.51,0,0,1,3.52-1c1.82.09,2.6-.64,3.37-2.21,3.89-7.94,7.59-16,12-23.64S421,35,429.15,31a27.18,27.18,0,0,1,20.64-1.69c11,3.47,14.37,16.37,6.56,24.93a15.8,15.8,0,0,1-10.5,5.26,5.46,5.46,0,0,1-.57,0c-1.36,0-2.45-.45-2.63-1.93s.66-2.23,2.08-2.44c2.89-.42,5.58-1.26,7.65-3.5,2.83-3.07,4-6.61,3-10.72-1.1-4.27-4.12-6.54-8.25-7.59-7.84-2-14.74.19-21,4.9-6.46,4.86-11.06,11.27-14.66,18.39-2.95,5.84-5.61,11.83-8.5,18,.71.08,1.17.18,1.64.19,2.49,0,5-.09,7.46.06A8.32,8.32,0,0,1,414.6,76a13,13,0,0,1-1.78,2.9c-.49.47-1.56.44-2.37.45-2.68,0-5.36.08-8,0a2.1,2.1,0,0,0-2.29,1.46q-13.15,28.94-26.4,57.85c-3.83,8.39-8.35,16.34-15.07,22.83C352.5,166.69,350.22,162.12,350.22,162.12ZM226.36,130l.19.51c2.1-.81,4.37-1.33,6.25-2.49,4.22-2.61,6.61-6.82,8.65-11.19q6-12.8,11.82-25.66a29.23,29.23,0,0,0,1.91-5.78,5.16,5.16,0,0,0-3.67-6.29,10.63,10.63,0,0,0-9.95,1.65c-3.85,2.8-6.11,6.78-8.07,11-3.14,6.68-6.3,13.35-9.4,20.06a88.57,88.57,0,0,0-4.11,9.64C218.32,126.6,221,130,226.36,130Zm126.88-29.82a12.17,12.17,0,0,0,12.1.81c4.35-1.92,6.83-5.65,8.64-9.77A32.77,32.77,0,0,0,376.42,83c.36-2.51-1.32-4-3.85-4.25-5.27-.54-8.86,2.28-11.33,6.35C358.29,89.91,355.9,95.12,353.24,100.22Z"/><path class="cls-3" d="M477.48,77A15,15,0,0,1,486,74.05c8.14,0,12.64,5.51,10.79,13.49a38.88,38.88,0,0,1-2.68,7.13c-3.47,7.65-7.11,15.22-10.55,22.88a22.72,22.72,0,0,0-1.89,6.36c-.46,3.71,1.63,5.91,5.39,6.11,5.26.28,9-2.44,11.84-6.46,1.44-2,2.53-4.27,3.77-6.42.23-.38.35-.83.6-1.19a2.18,2.18,0,0,1,3-.9,2,2,0,0,1,.93,2.77c-3.09,7.07-7.26,13.24-14.9,16a13.43,13.43,0,0,1-10.95-.71c-3.6-1.83-5.45-6.22-4.45-10.88a37,37,0,0,1,2.48-7.38C483.19,106.4,487.16,98,491,89.54a18,18,0,0,0,1.2-4,5.51,5.51,0,0,0-4.92-6.84c-3.89-.55-7.12,1-10,3.45A28.86,28.86,0,0,0,470.2,92c-3.87,8.45-7.64,16.94-11.57,25.36-2.69,5.79-6.18,11-11.65,14.6a15.7,15.7,0,0,1-12.79,2.17,8.73,8.73,0,0,1-6.78-6.14c-2.86,1.92-5.6,4.27-8.75,5.73-3.88,1.79-8,1.21-11.84-.71-4.08-2.06-5.94-6.62-4.54-11.87a57.93,57.93,0,0,1,3.57-9q5.28-11.55,10.76-23c2.43-5.06,5.56-9.62,10.47-12.63a15,15,0,0,1,12.29-1.83,10,10,0,0,1,6.29,5.08c.54-1.09,1-2,1.42-2.87,1-1.86,2.22-2.44,3.65-1.72s1.65,1.9.79,3.79q-6,13.29-12.12,26.57c-2,4.46-4.11,8.9-6,13.41A18,18,0,0,0,432,124c-.36,3.52,1.76,5.78,5.38,6,5.35.32,9.33-2.31,11.94-6.58a168.29,168.29,0,0,0,8.21-15.7c4.84-10.24,9.49-20.57,14.21-30.87.56-1.24,1.34-2.42,2.82-2C475.52,75.14,476.31,76.1,477.48,77ZM413.59,130l.2.51c2.09-.81,4.38-1.31,6.25-2.48,4.57-2.85,7-7.48,9.15-12.2,3.72-8,7.45-16,11.09-24.1a33.69,33.69,0,0,0,2.15-6.3,5.15,5.15,0,0,0-3.8-6.37,10.63,10.63,0,0,0-9.78,1.67c-3.81,2.74-6.06,6.66-8,10.77q-4.86,10.27-9.61,20.59a84.94,84.94,0,0,0-4,9.28C405.58,126.58,408.2,130,413.59,130Z"/><path class="cls-3" d="M166.46,165.54c8.57-6,14.15-14.44,18.46-23.73,9.39-20.2,18.61-40.48,27.84-60.76a2.43,2.43,0,0,1,2.71-1.7c2.61.11,5.23.08,7.85,0a4.25,4.25,0,0,0,2.51-.62,9.37,9.37,0,0,0,1.51-2.67,7.61,7.61,0,0,0-2.5-1.16c-2.92-.15-5.86-.06-9.08-.06.25-.66.36-1,.51-1.35,2.44-5.25,4.79-10.55,7.36-15.74,3.71-7.5,8.41-14.3,15.17-19.43,6.37-4.82,13.38-6.91,21.36-4.87,7.53,1.92,10.67,9.89,6.41,16.41A11,11,0,0,1,258.83,55c-.5.08-1,.21-1.5.29a2,2,0,0,0-1.95,2.36c.15,1.49,1.22,2,2.58,2a15.79,15.79,0,0,0,11-5.11c7.89-8.3,4.84-21.35-6-25a27,27,0,0,0-21,1.52c-8.15,4-14.11,10.39-18.53,18-4.51,7.81-8.29,16-12.28,24.15-.64,1.3-1.29,1.81-2.7,1.69s-3.19-.24-4.2,1.21a3.13,3.13,0,0,0-.47,2.26c.11.44,1,.82,1.65,1a16.21,16.21,0,0,0,2.74.18l-1.77,3.89c-8.84,19.33-17.61,38.71-26.58,58-3.84,8.25-9.1,15.5-16.78,20.71C163,162.08,162.06,167.18,166.46,165.54Z"/></svg>